<?xml version="1.0" encoding="UTF-8" standalone="no"?><!DOCTYPE svg PUBLIC "-//W3C//DTD SVG 1.1//EN" "http://www.w3.org/Graphics/SVG/1.1/DTD/svg11.dtd"><svg width="100%" height="100%" viewBox="0 0 400 400" version="1.1" xmlns="http://www.w3.org/2000/svg" xmlns:xlink="http://www.w3.org/1999/xlink" xml:space="preserve" xmlns:serif="http://www.serif.com/" style="fill-rule:evenodd;clip-rule:evenodd;stroke-linecap:round;stroke-linejoin:round;stroke-miterlimit:1.5;"><g><path d="M219.531,260.659l-5.677,30.2l-70.944,0l24.306,-110.264l33.198,0l-18.545,79.016l71.214,-0l-16.647,-78.981" style="fill:none;stroke:#000;stroke-width:12.5px;"/><path d="M228.84,173.87c9.849,-4.262 16.748,-14.071 16.748,-25.479c0,-15.315 -12.434,-27.749 -27.748,-27.749c-15.315,0 -27.749,12.434 -27.749,27.749c0,8.42 3.759,15.969 9.69,21.061l-15.06,-0c-3.881,-6.085 -6.131,-13.313 -6.131,-21.061c-0,-21.663 17.587,-39.25 39.25,-39.25c21.662,-0 39.25,17.587 39.25,39.25c-0,17.033 -10.874,31.547 -26.054,36.972l-2.196,-11.493Z"/></g></svg>